HIERARCHY
ROOT Hips
{
	OFFSET 0.0000 0.0000 0.0000
	CHANNELS 6 Xposition Yposition Zposition Zrotation Xrotation Yrotation
	JOINT Ab
	{
		OFFSET -0.0000 8.1305 -0.0000
		CHANNELS 3 Zrotation Xrotation Yrotation
		JOINT Chest
		{
			OFFSET -0.0000 26.2902 -0.0000
			CHANNELS 3 Zrotation Xrotation Yrotation
			JOINT Neck
			{
				OFFSET -0.0000 26.2902 0.0000
				CHANNELS 3 Zrotation Xrotation Yrotation
				JOINT Head
				{
					OFFSET -0.0000 10.8167 0.0000
					CHANNELS 3 Zrotation Xrotation Yrotation
					End Site
					{
						OFFSET -0.0000 16.7167 0.0000
					}
				}
			}
			JOINT LeftCollar
			{
				OFFSET -0.0000 26.2902 0.0000
				CHANNELS 3 Zrotation Xrotation Yrotation
				JOINT LeftShoulder
				{
					OFFSET 19.6667 -0.0000 0.0000
					CHANNELS 3 Zrotation Xrotation Yrotation
					JOINT LeftElbow
					{
						OFFSET 27.2190 0.0000 0.0000
						CHANNELS 3 Zrotation Xrotation Yrotation
						JOINT LeftWrist
						{
							OFFSET 30.7431 0.0000 0.0000
							CHANNELS 3 Zrotation Xrotation Yrotation
							End Site
							{
								OFFSET 0.0000 -14.7500 0.0000
							}
						}
					}
				}
			}
			JOINT RightCollar
			{
				OFFSET -0.0000 26.2902 0.0000
				CHANNELS 3 Zrotation Xrotation Yrotation
				JOINT RightShoulder
				{
					OFFSET -19.6667 0.0000 0.0000
					CHANNELS 3 Zrotation Xrotation Yrotation
					JOINT RightElbow
					{
						OFFSET -27.2190 0.0000 0.0000
						CHANNELS 3 Zrotation Xrotation Yrotation
						JOINT RightWrist
						{
							OFFSET -30.7431 0.0000 0.0000
							CHANNELS 3 Zrotation Xrotation Yrotation
							End Site
							{
								OFFSET -0.0000 -14.7500 0.0000
							}
						}
					}
				}
			}
		}
	}
	JOINT LeftHip
	{
		OFFSET 11.8000 0.0000 0.0000
		CHANNELS 3 Zrotation Xrotation Yrotation
		JOINT LeftKnee
		{
			OFFSET -0.0000 -39.7832 0.0000
			CHANNELS 3 Zrotation Xrotation Yrotation
			JOINT LeftAnkle
			{
				OFFSET -0.0000 -41.7317 0.0000
				CHANNELS 3 Zrotation Xrotation Yrotation
				End Site
				{
					OFFSET -0.0000 -4.9167 16.7167
				}
			}
		}
	}
	JOINT RightHip
	{
		OFFSET -11.8000 0.0000 0.0000
		CHANNELS 3 Zrotation Xrotation Yrotation
		JOINT RightKnee
		{
			OFFSET -0.0000 -39.7832 0.0000
			CHANNELS 3 Zrotation Xrotation Yrotation
			JOINT RightAnkle
			{
				OFFSET -0.0000 -41.7317 0.0000
				CHANNELS 3 Zrotation Xrotation Yrotation
				End Site
				{
					OFFSET -0.0000 -4.9167 16.7167
				}
			}
		}
	}
}
MOTION
Frames: 15
Frame Time: 0.010000
-13.3702 91.5650 103.3835 359.1386 356.0792 176.3116 355.9598 351.1263 359.3808 1.8605 16.1936 359.4273 356.4459 356.9891 2.2026 355.3768 10.7118 2.7084 337.8626 357.3917 13.2759 337.3303 54.7979 323.1424 12.4442 355.4850 320.7822 90.2984 356.7646 352.6516 27.4881 356.3240 345.0585 42.2351 49.9091 9.4190 336.3025 353.0981 32.1376 270.8031 355.3680 3.8171 355.1370 0.0232 4.6128 355.4284 11.5548 359.4395 358.8551 347.4312 16.4114 352.4435 338.1784 358.9439 13.8740 33.7184 7.3724 356.7058 335.9842 321.1419 
-13.3733 91.5352 103.0437 359.1316 356.0921 176.4197 355.9560 351.1518 359.4011 1.8974 16.2345 359.4346 356.4630 357.0623 2.1261 355.3602 10.6353 2.6351 337.8468 357.3998 13.2562 337.2037 54.8427 323.2853 12.4338 355.5345 320.8470 90.3452 356.7992 352.6757 27.4754 356.3561 345.0780 42.3702 49.8256 9.3018 336.3237 353.1195 32.0432 270.8325 355.3904 3.8632 355.1050 0.2991 4.5682 355.4315 11.4736 359.3826 358.9052 347.3706 16.3919 352.4438 337.8490 358.9659 13.7088 32.4290 7.6240 356.8658 336.2338 321.0520 
-13.3842 91.5048 102.7043 359.0909 356.0556 176.4979 355.9236 351.0968 359.4562 1.9470 16.3254 359.4867 356.4466 357.1453 2.0500 355.3824 10.5180 2.5478 337.8150 357.4102 13.1723 336.9827 54.8584 323.5374 12.4119 355.5674 320.9226 90.3558 356.7616 352.6399 27.4457 356.3346 345.0522 42.4403 49.7529 9.2759 336.3121 353.1442 31.9229 270.8445 355.3634 3.9479 355.0340 0.5143 4.5257 355.4276 11.4277 359.4969 358.4984 347.2963 16.2418 352.4550 337.4561 358.9955 13.5087 31.2050 7.8142 357.1052 336.2247 321.1502 
-13.3908 91.4726 102.3552 359.0588 356.0365 176.5818 355.9362 351.0518 359.4722 1.9517 16.4694 359.4972 356.4264 357.0166 1.9986 355.4583 10.5629 2.4934 337.8661 357.4138 13.1945 336.8472 54.9112 323.5688 12.4437 355.5958 321.0825 90.3364 356.6907 352.6003 27.3925 356.3238 344.9670 42.4471 49.7569 9.3825 336.3475 353.1722 31.8215 270.8787 355.4140 4.0427 354.9693 0.7676 4.4859 355.4345 11.3554 359.4838 358.2705 347.2240 16.2321 352.4910 337.1088 359.2953 13.4394 29.9550 7.8582 357.4256 336.1426 321.2957 
-13.3907 91.4373 102.0123 359.0316 356.0044 176.6940 355.9404 351.0178 359.4984 1.9889 16.5909 359.4824 356.3899 356.8405 1.9399 355.5301 10.6553 2.4375 337.9412 357.4065 13.2463 336.7065 55.0342 323.5633 12.4656 355.6203 321.2976 90.5818 356.6146 352.7201 27.3254 356.3183 344.8904 42.4646 49.7379 9.4744 336.3600 353.1993 31.7401 270.7852 355.4216 3.9653 354.9120 0.9955 4.4642 355.4727 11.3115 359.1888 358.4897 347.1551 16.4644 352.5456 336.8024 359.5899 13.2961 28.7354 7.9610 357.7014 336.1604 321.4775 
-13.3855 91.3987 101.6790 359.0015 355.9287 176.8121 355.9551 351.0033 359.4950 1.9867 16.5611 359.4890 356.4341 356.8999 1.8646 355.5221 10.5923 2.3581 337.9882 357.3945 13.2392 336.4603 55.1910 323.7831 12.4303 355.6337 321.5079 90.7081 356.5760 352.7383 27.3447 356.2875 344.8519 42.5176 49.6962 9.3921 336.4346 353.2322 31.7065 270.8077 355.4830 4.0504 354.8625 1.1587 4.4419 355.4942 11.2699 359.1830 358.8418 347.1239 16.4159 352.6134 336.4360 359.6755 12.8743 27.4677 8.4216 357.7216 336.4764 321.5012 
-13.3744 91.3627 101.3268 358.9674 355.8927 176.9464 355.9806 351.0353 359.4780 1.9453 16.4566 359.4793 356.5239 357.1081 1.8188 355.4569 10.4514 2.3044 337.9733 357.4226 13.2230 336.1635 55.2721 324.1758 12.2627 355.7287 321.6925 90.6319 356.5555 352.4852 27.4191 356.2889 344.9201 42.7104 49.6014 9.0835 336.5319 353.2578 31.6677 270.9034 355.4713 4.2631 354.8093 1.3600 4.4275 355.5323 11.2523 359.1713 359.8700 347.1559 16.3621 352.6844 336.1780 359.8045 12.5523 26.0045 8.3264 357.8152 336.9345 321.7426 
-13.3720 91.3252 100.9295 358.8950 355.8953 177.0509 355.9594 350.9779 359.4781 1.9728 16.5691 359.5123 356.4679 357.0468 1.7699 355.3627 10.4927 2.2683 337.9901 357.4271 13.2072 335.7848 55.3367 324.5196 12.2795 355.7267 321.8566 89.9515 356.7173 351.9531 27.4044 356.2938 344.8990 42.7131 49.5524 9.0805 336.5772 353.2778 31.5649 270.7965 355.3515 4.4064 354.7036 1.6846 4.3791 355.5810 11.1152 359.1618 359.8628 347.0761 16.3047 352.7330 336.0280 0.0324 12.2033 24.6301 8.5806 358.4498 337.1026 321.7418 
-13.3558 91.2820 100.5714 358.8480 355.8508 177.2161 355.9501 350.9699 359.4660 1.9849 16.5821 359.4921 356.5550 357.0262 1.7034 355.2952 10.4924 2.2062 337.9497 357.4206 13.1754 335.5610 55.3095 324.8552 12.0644 355.8546 322.0854 89.9879 356.6822 351.7041 27.4181 356.2840 344.9063 42.8361 49.4192 8.9052 336.6262 353.3043 31.6476 270.8376 355.4599 4.4786 354.6534 1.8767 4.3206 355.6118 11.1144 359.1813 359.7080 346.9774 16.2648 352.8107 335.8520 0.3543 11.9395 23.3722 8.5540 358.6947 337.1748 321.7643 
-13.3353 91.2401 100.1827 358.7844 355.8703 177.3872 355.9152 350.9853 359.4470 2.0268 16.6296 359.4670 356.5253 356.9452 1.6408 355.3534 10.5737 2.1433 337.9849 357.4423 13.1871 335.1545 55.3379 325.1964 11.9006 355.9492 322.3028 90.0432 356.7050 351.5817 27.4243 356.2931 344.8900 42.8628 49.3373 8.8254 336.6813 353.2990 31.6941 270.7083 355.6785 4.2761 354.5843 2.1673 4.2565 355.6431 11.0832 359.0631 359.4771 346.9020 16.3303 352.8726 335.7974 0.5546 11.7287 22.2062 8.2102 358.8875 337.1565 321.9991 
-13.3088 91.1950 99.8006 358.7305 355.8508 177.5440 355.8966 350.9756 359.4415 2.0777 16.6646 359.4629 356.4597 356.8845 1.5848 355.4564 10.6047 2.0831 337.9175 357.4331 13.0955 334.7149 55.2374 325.7983 11.6265 356.0795 322.4449 89.9846 356.7161 351.2380 27.4084 356.2980 344.8442 42.8911 49.3064 8.8227 336.6621 353.2903 31.6381 270.7663 355.6744 4.3134 354.5282 2.4062 4.2100 355.6734 11.0682 358.9300 359.9986 346.8978 16.3746 352.9662 335.7032 0.7868 11.4117 21.0405 8.0387 358.9137 337.2883 322.1379 
-13.2768 91.1448 99.4248 358.6772 355.7935 177.7035 355.8860 350.9449 359.4433 2.1234 16.7007 359.4518 356.3967 356.5924 1.5602 355.5575 10.9281 2.0732 337.8842 357.4333 13.0100 334.3423 55.1707 326.3179 11.3825 356.1807 322.6025 90.1133 356.7634 351.0611 27.3781 356.2895 344.7822 42.9343 49.2439 8.8260 336.6471 353.2993 31.6155 270.7606 355.5727 4.3369 354.4682 2.5788 4.1156 355.7172 11.0980 358.7698 0.2853 346.8993 16.4253 353.0659 335.5860 1.0215 11.1729 19.8660 7.6389 358.7135 337.6754 322.2662 
-13.2422 91.0938 99.0320 358.6343 355.7723 177.8739 355.8838 350.9222 359.4393 2.1729 16.7942 359.4347 356.3734 356.2629 1.5151 355.6007 11.1999 2.0452 337.9966 357.4651 13.0413 333.9956 55.2752 326.5359 11.2795 356.2233 322.8423 90.0629 356.7780 350.8944 27.3065 356.2838 344.6981 42.9901 49.1959 8.8890 336.6259 353.3076 31.5731 270.7249 355.5014 4.2650 354.4176 2.8047 3.9626 355.7489 11.1095 358.5607 0.5603 346.8722 16.6115 353.1835 335.5367 1.2856 10.9440 18.7739 7.2227 358.6466 337.8825 322.4249 
-13.2056 91.0432 98.6218 358.5904 355.7879 178.0519 355.9097 350.9388 359.4191 2.1689 16.8345 359.4198 356.3973 356.1790 1.4586 355.6330 11.2007 1.9853 338.0960 357.4758 13.0243 333.5385 55.4166 326.9518 11.2255 356.2494 323.1159 89.6752 356.6179 350.4732 27.3224 356.2423 344.6526 43.0264 49.1720 8.8428 336.6191 353.3030 31.5947 270.5190 355.5909 4.1613 354.3648 3.0834 3.8678 355.7862 11.1084 358.4114 1.0636 346.7338 16.8285 353.3280 335.5413 1.7003 10.6549 17.6681 6.8359 358.6943 338.0628 322.5119 
-13.1530 90.9859 98.2020 358.5677 355.7909 178.2420 355.8980 350.9370 359.4176 2.2728 16.8714 359.4000 356.3285 356.1483 1.3958 355.7270 11.1389 1.9146 338.1164 357.4801 13.0345 333.2366 55.5381 327.2750 11.0393 356.3494 323.3261 89.6487 356.5602 350.2042 27.2891 356.2519 344.6195 43.0961 49.0918 8.7820 336.6530 353.3142 31.5951 270.4473 355.6739 4.1742 354.3525 3.3461 3.7866 355.8192 11.1190 358.4499 1.0919 346.5782 16.7805 353.4670 335.5680 1.6946 10.2934 16.6896 6.8435 358.6181 338.2538 322.6361 
